<svg id="visual" viewBox="0 0 675 900" width="675" height="900" xmlns="http://www.w3.org/2000/svg" xmlns:xlink="http://www.w3.org/1999/xlink" version="1.1"><rect x="0" y="0" width="675" height="900" fill="#033649"></rect><defs><linearGradient id="grad1_0" x1="0%" y1="100%" x2="100%" y2="0%"><stop offset="30%" stop-color="#037c9b" stop-opacity="1"></stop><stop offset="70%" stop-color="#037c9b" stop-opacity="1"></stop></linearGradient></defs><defs><linearGradient id="grad1_1" x1="0%" y1="100%" x2="100%" y2="0%"><stop offset="30%" stop-color="#037c9b" stop-opacity="1"></stop><stop offset="70%" stop-color="#055871" stop-opacity="1"></stop></linearGradient></defs><defs><linearGradient id="grad1_2" x1="0%" y1="100%" x2="100%" y2="0%"><stop offset="30%" stop-color="#033649" stop-opacity="1"></stop><stop offset="70%" stop-color="#055871" stop-opacity="1"></stop></linearGradient></defs><defs><linearGradient id="grad2_0" x1="0%" y1="100%" x2="100%" y2="0%"><stop offset="30%" stop-color="#037c9b" stop-opacity="1"></stop><stop offset="70%" stop-color="#037c9b" stop-opacity="1"></stop></linearGradient></defs><defs><linearGradient id="grad2_1" x1="0%" y1="100%" x2="100%" y2="0%"><stop offset="30%" stop-color="#055871" stop-opacity="1"></stop><stop offset="70%" stop-color="#037c9b" stop-opacity="1"></stop></linearGradient></defs><defs><linearGradient id="grad2_2" x1="0%" y1="100%" x2="100%" y2="0%"><stop offset="30%" stop-color="#055871" stop-opacity="1"></stop><stop offset="70%" stop-color="#033649" stop-opacity="1"></stop></linearGradient></defs><g transform="translate(675, 900)"><path d="M-365.6 0C-353 -30.6 -340.3 -61.2 -325.5 -87.2C-310.7 -113.2 -293.8 -134.6 -284.9 -164.5C-276.1 -194.4 -275.4 -232.9 -258.5 -258.5C-241.7 -284.2 -208.7 -297.1 -178.5 -309.2C-148.3 -321.3 -120.9 -332.7 -91.6 -341.9C-62.3 -351.2 -31.2 -358.4 0 -365.6L0 0Z" fill="#04465d"></path><path d="M-243.7 0C-235.3 -20.4 -226.9 -40.8 -217 -58.1C-207.1 -75.5 -195.8 -89.7 -189.9 -109.7C-184.1 -129.6 -183.6 -155.3 -172.4 -172.4C-161.1 -189.5 -139.1 -198 -119 -206.1C-98.9 -214.2 -80.6 -221.8 -61.1 -228C-41.6 -234.1 -20.8 -238.9 0 -243.7L0 0Z" fill="#056a86"></path><path d="M-121.9 0C-117.7 -10.2 -113.4 -20.4 -108.5 -29.1C-103.6 -37.7 -97.9 -44.9 -95 -54.8C-92 -64.8 -91.8 -77.6 -86.2 -86.2C-80.6 -94.7 -69.6 -99 -59.5 -103.1C-49.4 -107.1 -40.3 -110.9 -30.5 -114C-20.8 -117.1 -10.4 -119.5 0 -121.9L0 0Z" fill="#037c9b"></path></g><g transform="translate(0, 0)"><path d="M365.6 0C360 32.1 354.4 64.2 341 91.4C327.5 118.6 306.3 140.8 291.9 168.5C277.4 196.2 269.9 229.2 250.3 250.3C230.7 271.4 199 280.6 172 297.9C145 315.2 122.5 340.5 94.6 353.2C66.7 365.8 33.4 365.7 0 365.6L0 0Z" fill="#04465d"></path><path d="M243.8 0C240 21.4 236.3 42.8 227.3 60.9C218.4 79 204.2 93.9 194.6 112.3C185 130.8 179.9 152.8 166.9 166.9C153.8 181 132.7 187.1 114.7 198.6C96.6 210.1 81.7 227 63.1 235.4C44.5 243.9 22.2 243.8 0 243.8L0 0Z" fill="#056a86"></path><path d="M121.9 0C120 10.7 118.1 21.4 113.7 30.5C109.2 39.5 102.1 46.9 97.3 56.2C92.5 65.4 90 76.4 83.4 83.4C76.9 90.5 66.3 93.5 57.3 99.3C48.3 105.1 40.8 113.5 31.5 117.7C22.2 121.9 11.1 121.9 0 121.9L0 0Z" fill="#037c9b"></path></g></svg>