<svg id="visual" viewBox="0 0 900 450" width="900" height="450" xmlns="http://www.w3.org/2000/svg" xmlns:xlink="http://www.w3.org/1999/xlink" version="1.1"><rect x="0" y="0" width="900" height="450" fill="#022633"></rect><defs><linearGradient id="grad1_0" x1="50%" y1="0%" x2="100%" y2="100%"><stop offset="10%" stop-color="#022633" stop-opacity="1"></stop><stop offset="90%" stop-color="#022633" stop-opacity="1"></stop></linearGradient></defs><defs><linearGradient id="grad2_0" x1="0%" y1="0%" x2="50%" y2="100%"><stop offset="10%" stop-color="#022633" stop-opacity="1"></stop><stop offset="90%" stop-color="#022633" stop-opacity="1"></stop></linearGradient></defs><g transform="translate(900, 0)"><path d="M0 247.5C-22.3 205 -44.5 162.5 -85 147.2C-125.5 131.9 -184.2 143.8 -214.3 123.8C-244.5 103.7 -246 51.9 -247.5 0L0 0Z" fill="#009dc0"></path></g><g transform="translate(0, 450)"><path d="M0 -247.5C31.6 -221.2 63.2 -194.9 102.5 -177.5C141.8 -160.2 188.9 -151.8 214.3 -123.8C239.8 -95.7 243.6 -47.8 247.5 0L0 0Z" fill="#009dc0"></path></g></svg>