<svg id="visual" viewBox="0 0 700 250" width="700" height="250" xmlns="http://www.w3.org/2000/svg" xmlns:xlink="http://www.w3.org/1999/xlink" version="1.1"><rect x="0" y="0" width="700" height="250" fill="#022633"></rect><defs><linearGradient id="grad1_0" x1="64.3%" y1="0%" x2="100%" y2="100%"><stop offset="-5.999999999999993%" stop-color="#022633" stop-opacity="1"></stop><stop offset="105.99999999999999%" stop-color="#022633" stop-opacity="1"></stop></linearGradient></defs><defs><linearGradient id="grad2_0" x1="0%" y1="0%" x2="35.7%" y2="100%"><stop offset="-5.999999999999993%" stop-color="#022633" stop-opacity="1"></stop><stop offset="105.99999999999999%" stop-color="#022633" stop-opacity="1"></stop></linearGradient></defs><g transform="translate(700, 0)"><path d="M0 137.5C-26 135 -52 132.5 -68.7 119.1C-85.5 105.6 -93.1 81.2 -103.1 59.5C-113 37.8 -125.2 18.9 -137.5 0L0 0Z" fill="#037c9b"></path></g><g transform="translate(0, 250)"><path d="M0 -137.5C18.1 -123.9 36.2 -110.2 58 -100.5C79.8 -90.7 105.2 -84.8 119.1 -68.8C132.9 -52.7 135.2 -26.3 137.5 0L0 0Z" fill="#037c9b"></path></g></svg>