<svg id="visual" viewBox="0 0 675 900" width="675" height="900" xmlns="http://www.w3.org/2000/svg" xmlns:xlink="http://www.w3.org/1999/xlink" version="1.1"><rect x="0" y="0" width="675" height="900" fill="#033649"></rect><defs><linearGradient id="grad1_0" x1="0%" y1="100%" x2="100%" y2="0%"><stop offset="30%" stop-color="#033649" stop-opacity="1"></stop><stop offset="70%" stop-color="#033649" stop-opacity="1"></stop></linearGradient></defs><defs><linearGradient id="grad2_0" x1="0%" y1="100%" x2="100%" y2="0%"><stop offset="30%" stop-color="#033649" stop-opacity="1"></stop><stop offset="70%" stop-color="#033649" stop-opacity="1"></stop></linearGradient></defs><g transform="translate(675, 900)"><path d="M-365.6 0C-352 -28.6 -338.4 -57.2 -333.2 -89.3C-328.1 -121.4 -331.4 -157 -316.6 -182.8C-301.9 -208.6 -269.2 -224.5 -242.5 -242.5C-215.8 -260.6 -195.1 -280.8 -170.5 -295.3C-145.9 -309.8 -117.3 -318.6 -88.3 -329.4C-59.2 -340.1 -29.6 -352.9 0 -365.6L0 0Z" fill="#037c9b"></path></g><g transform="translate(0, 0)"><path d="M365.6 0C361.8 31.5 357.9 63 350.6 94C343.3 124.9 332.6 155.3 316.6 182.8C300.7 210.4 279.7 235.1 255.3 255.3C230.9 275.5 203.1 291.1 175 303.1C146.9 315.1 118.5 323.4 89.3 333.2C60.1 343.1 30 354.3 0 365.6L0 0Z" fill="#037c9b"></path></g></svg>