<svg id="visual" viewBox="0 0 700 250" width="700" height="250" xmlns="http://www.w3.org/2000/svg" xmlns:xlink="http://www.w3.org/1999/xlink" version="1.1"><path d="M0 16L5.8 16C11.7 16 23.3 16 35 16.8C46.7 17.7 58.3 19.3 70 19C81.7 18.7 93.3 16.3 105 14.7C116.7 13 128.3 12 140 12C151.7 12 163.3 13 175 12.2C186.7 11.3 198.3 8.7 210 7.8C221.7 7 233.3 8 245 10.5C256.7 13 268.3 17 280 18.7C291.7 20.3 303.3 19.7 315 19.3C326.7 19 338.3 19 350 18.2C361.7 17.3 373.3 15.7 385 14.8C396.7 14 408.3 14 420 14.8C431.7 15.7 443.3 17.3 455 16.8C466.7 16.3 478.3 13.7 490 13.2C501.7 12.7 513.3 14.3 525 15.2C536.7 16 548.3 16 560 15.7C571.7 15.3 583.3 14.7 595 14.7C606.7 14.7 618.3 15.3 630 16.2C641.7 17 653.3 18 665 16.8C676.7 15.7 688.3 12.3 694.2 10.7L700 9L700 0L694.2 0C688.3 0 676.7 0 665 0C653.3 0 641.7 0 630 0C618.3 0 606.7 0 595 0C583.3 0 571.7 0 560 0C548.3 0 536.7 0 525 0C513.3 0 501.7 0 490 0C478.3 0 466.7 0 455 0C443.3 0 431.7 0 420 0C408.3 0 396.7 0 385 0C373.3 0 361.7 0 350 0C338.3 0 326.7 0 315 0C303.3 0 291.7 0 280 0C268.3 0 256.7 0 245 0C233.3 0 221.7 0 210 0C198.3 0 186.7 0 175 0C163.3 0 151.7 0 140 0C128.3 0 116.7 0 105 0C93.3 0 81.7 0 70 0C58.3 0 46.7 0 35 0C23.3 0 11.7 0 5.8 0L0 0Z" fill="#14627f"></path><path d="M0 24L5.8 24.3C11.7 24.7 23.3 25.3 35 26.5C46.7 27.7 58.3 29.3 70 28.5C81.7 27.7 93.3 24.3 105 23.2C116.7 22 128.3 23 140 23.5C151.7 24 163.3 24 175 22.7C186.7 21.3 198.3 18.7 210 17.3C221.7 16 233.3 16 245 18.5C256.7 21 268.3 26 280 28.2C291.7 30.3 303.3 29.7 315 29.3C326.7 29 338.3 29 350 27.3C361.7 25.7 373.3 22.3 385 21.8C396.7 21.3 408.3 23.7 420 24.5C431.7 25.3 443.3 24.7 455 24.3C466.7 24 478.3 24 490 23.5C501.7 23 513.3 22 525 22C536.7 22 548.3 23 560 23.5C571.7 24 583.3 24 595 24.8C606.7 25.7 618.3 27.3 630 28.5C641.7 29.7 653.3 30.3 665 28.7C676.7 27 688.3 23 694.2 21L700 19L700 7L694.2 8.7C688.3 10.3 676.7 13.7 665 14.8C653.3 16 641.7 15 630 14.2C618.3 13.3 606.7 12.7 595 12.7C583.3 12.7 571.7 13.3 560 13.7C548.3 14 536.7 14 525 13.2C513.3 12.3 501.7 10.7 490 11.2C478.3 11.7 466.7 14.3 455 14.8C443.3 15.3 431.7 13.7 420 12.8C408.3 12 396.7 12 385 12.8C373.3 13.7 361.7 15.3 350 16.2C338.3 17 326.7 17 315 17.3C303.3 17.7 291.7 18.3 280 16.7C268.3 15 256.7 11 245 8.5C233.3 6 221.7 5 210 5.8C198.3 6.7 186.7 9.3 175 10.2C163.3 11 151.7 10 140 10C128.3 10 116.7 11 105 12.7C93.3 14.3 81.7 16.7 70 17C58.3 17.3 46.7 15.7 35 14.8C23.3 14 11.7 14 5.8 14L0 14Z" fill="#115a75"></path><path d="M0 49L5.8 49C11.7 49 23.3 49 35 49C46.7 49 58.3 49 70 50.2C81.7 51.3 93.3 53.7 105 52.3C116.7 51 128.3 46 140 44C151.7 42 163.3 43 175 43.8C186.7 44.7 198.3 45.3 210 46.5C221.7 47.7 233.3 49.3 245 52.7C256.7 56 268.3 61 280 60.2C291.7 59.3 303.3 52.7 315 49.3C326.7 46 338.3 46 350 45.2C361.7 44.3 373.3 42.7 385 41C396.7 39.3 408.3 37.7 420 39.3C431.7 41 443.3 46 455 46C466.7 46 478.3 41 490 38.2C501.7 35.3 513.3 34.7 525 37.2C536.7 39.7 548.3 45.3 560 49C571.7 52.7 583.3 54.3 595 55.2C606.7 56 618.3 56 630 56.5C641.7 57 653.3 58 665 53.8C676.7 49.7 688.3 40.3 694.2 35.7L700 31L700 17L694.2 19C688.3 21 676.7 25 665 26.7C653.3 28.3 641.7 27.7 630 26.5C618.3 25.3 606.7 23.7 595 22.8C583.3 22 571.7 22 560 21.5C548.3 21 536.7 20 525 20C513.3 20 501.7 21 490 21.5C478.3 22 466.7 22 455 22.3C443.3 22.7 431.7 23.3 420 22.5C408.3 21.7 396.7 19.3 385 19.8C373.3 20.3 361.7 23.7 350 25.3C338.3 27 326.7 27 315 27.3C303.3 27.7 291.7 28.3 280 26.2C268.3 24 256.7 19 245 16.5C233.3 14 221.7 14 210 15.3C198.3 16.7 186.7 19.3 175 20.7C163.3 22 151.7 22 140 21.5C128.3 21 116.7 20 105 21.2C93.3 22.3 81.7 25.7 70 26.5C58.3 27.3 46.7 25.7 35 24.5C23.3 23.3 11.7 22.7 5.8 22.3L0 22Z" fill="#0d516b"></path><path d="M0 61L5.8 61C11.7 61 23.3 61 35 61.5C46.7 62 58.3 63 70 64.3C81.7 65.7 93.3 67.3 105 68.2C116.7 69 128.3 69 140 66.8C151.7 64.7 163.3 60.3 175 61.5C186.7 62.7 198.3 69.3 210 71.8C221.7 74.3 233.3 72.7 245 72.7C256.7 72.7 268.3 74.3 280 73.5C291.7 72.7 303.3 69.3 315 68.2C326.7 67 338.3 68 350 66C361.7 64 373.3 59 385 56.8C396.7 54.7 408.3 55.3 420 56.5C431.7 57.7 443.3 59.3 455 60.2C466.7 61 478.3 61 490 60.2C501.7 59.3 513.3 57.7 525 59C536.7 60.3 548.3 64.7 560 67.2C571.7 69.7 583.3 70.3 595 69.8C606.7 69.3 618.3 67.7 630 69C641.7 70.3 653.3 74.7 665 72.7C676.7 70.7 688.3 62.3 694.2 58.2L700 54L700 29L694.2 33.7C688.3 38.3 676.7 47.7 665 51.8C653.3 56 641.7 55 630 54.5C618.3 54 606.7 54 595 53.2C583.3 52.3 571.7 50.7 560 47C548.3 43.3 536.7 37.7 525 35.2C513.3 32.7 501.7 33.3 490 36.2C478.3 39 466.7 44 455 44C443.3 44 431.7 39 420 37.3C408.3 35.7 396.7 37.3 385 39C373.3 40.7 361.7 42.3 350 43.2C338.3 44 326.7 44 315 47.3C303.3 50.7 291.7 57.3 280 58.2C268.3 59 256.7 54 245 50.7C233.3 47.3 221.7 45.7 210 44.5C198.3 43.3 186.7 42.7 175 41.8C163.3 41 151.7 40 140 42C128.3 44 116.7 49 105 50.3C93.3 51.7 81.7 49.3 70 48.2C58.3 47 46.7 47 35 47C23.3 47 11.7 47 5.8 47L0 47Z" fill="#0a4961"></path><path d="M0 111L5.8 110.7C11.7 110.3 23.3 109.7 35 106.3C46.7 103 58.3 97 70 102C81.7 107 93.3 123 105 125.5C116.7 128 128.3 117 140 112.3C151.7 107.7 163.3 109.3 175 112.3C186.7 115.3 198.3 119.7 210 125.5C221.7 131.3 233.3 138.7 245 137.8C256.7 137 268.3 128 280 124.3C291.7 120.7 303.3 122.3 315 120.2C326.7 118 338.3 112 350 110.7C361.7 109.3 373.3 112.7 385 114C396.7 115.3 408.3 114.7 420 111.3C431.7 108 443.3 102 455 106.2C466.7 110.3 478.3 124.7 490 131.8C501.7 139 513.3 139 525 134.8C536.7 130.7 548.3 122.3 560 120.7C571.7 119 583.3 124 595 125.2C606.7 126.3 618.3 123.7 630 123.2C641.7 122.7 653.3 124.3 665 119C676.7 113.7 688.3 101.3 694.2 95.2L700 89L700 52L694.2 56.2C688.3 60.3 676.7 68.7 665 70.7C653.3 72.7 641.7 68.3 630 67C618.3 65.7 606.7 67.3 595 67.8C583.3 68.3 571.7 67.7 560 65.2C548.3 62.7 536.7 58.3 525 57C513.3 55.7 501.7 57.3 490 58.2C478.3 59 466.7 59 455 58.2C443.3 57.3 431.7 55.7 420 54.5C408.3 53.3 396.7 52.7 385 54.8C373.3 57 361.7 62 350 64C338.3 66 326.7 65 315 66.2C303.3 67.3 291.7 70.7 280 71.5C268.3 72.3 256.7 70.7 245 70.7C233.3 70.7 221.7 72.3 210 69.8C198.3 67.3 186.7 60.7 175 59.5C163.3 58.3 151.7 62.7 140 64.8C128.3 67 116.7 67 105 66.2C93.3 65.3 81.7 63.7 70 62.3C58.3 61 46.7 60 35 59.5C23.3 59 11.7 59 5.8 59L0 59Z" fill="#074257"></path><path d="M0 149L5.8 148.2C11.7 147.3 23.3 145.7 35 143.2C46.7 140.7 58.3 137.3 70 140.2C81.7 143 93.3 152 105 152C116.7 152 128.3 143 140 140.2C151.7 137.3 163.3 140.7 175 145.2C186.7 149.7 198.3 155.3 210 158.7C221.7 162 233.3 163 245 162.7C256.7 162.3 268.3 160.7 280 160.2C291.7 159.7 303.3 160.3 315 157C326.7 153.7 338.3 146.3 350 142.7C361.7 139 373.3 139 385 141C396.7 143 408.3 147 420 142.8C431.7 138.7 443.3 126.3 455 128C466.7 129.7 478.3 145.3 490 154C501.7 162.7 513.3 164.3 525 162.7C536.7 161 548.3 156 560 155.2C571.7 154.3 583.3 157.7 595 156C606.7 154.3 618.3 147.7 630 146.8C641.7 146 653.3 151 665 149.8C676.7 148.7 688.3 141.3 694.2 137.7L700 134L700 87L694.2 93.2C688.3 99.3 676.7 111.7 665 117C653.3 122.3 641.7 120.7 630 121.2C618.3 121.7 606.7 124.3 595 123.2C583.3 122 571.7 117 560 118.7C548.3 120.3 536.7 128.7 525 132.8C513.3 137 501.7 137 490 129.8C478.3 122.7 466.7 108.3 455 104.2C443.3 100 431.7 106 420 109.3C408.3 112.7 396.7 113.3 385 112C373.3 110.7 361.7 107.3 350 108.7C338.3 110 326.7 116 315 118.2C303.3 120.3 291.7 118.7 280 122.3C268.3 126 256.7 135 245 135.8C233.3 136.7 221.7 129.3 210 123.5C198.3 117.7 186.7 113.3 175 110.3C163.3 107.3 151.7 105.7 140 110.3C128.3 115 116.7 126 105 123.5C93.3 121 81.7 105 70 100C58.3 95 46.7 101 35 104.3C23.3 107.7 11.7 108.3 5.8 108.7L0 109Z" fill="#043a4e"></path><path d="M0 166L5.8 164C11.7 162 23.3 158 35 154.7C46.7 151.3 58.3 148.7 70 153.2C81.7 157.7 93.3 169.3 105 170.2C116.7 171 128.3 161 140 158.5C151.7 156 163.3 161 175 164.3C186.7 167.7 198.3 169.3 210 170.2C221.7 171 233.3 171 245 170.2C256.7 169.3 268.3 167.7 280 168.2C291.7 168.7 303.3 171.3 315 170.2C326.7 169 338.3 164 350 160.2C361.7 156.3 373.3 153.7 385 154.8C396.7 156 408.3 161 420 157.3C431.7 153.7 443.3 141.3 455 144.3C466.7 147.3 478.3 165.7 490 173.2C501.7 180.7 513.3 177.3 525 174.3C536.7 171.3 548.3 168.7 560 167.8C571.7 167 583.3 168 595 166.8C606.7 165.7 618.3 162.3 630 162.7C641.7 163 653.3 167 665 165.3C676.7 163.7 688.3 156.3 694.2 152.7L700 149L700 132L694.2 135.7C688.3 139.3 676.7 146.7 665 147.8C653.3 149 641.7 144 630 144.8C618.3 145.7 606.7 152.3 595 154C583.3 155.7 571.7 152.3 560 153.2C548.3 154 536.7 159 525 160.7C513.3 162.3 501.7 160.7 490 152C478.3 143.3 466.7 127.7 455 126C443.3 124.3 431.7 136.7 420 140.8C408.3 145 396.7 141 385 139C373.3 137 361.7 137 350 140.7C338.3 144.3 326.7 151.7 315 155C303.3 158.3 291.7 157.7 280 158.2C268.3 158.7 256.7 160.3 245 160.7C233.3 161 221.7 160 210 156.7C198.3 153.3 186.7 147.7 175 143.2C163.3 138.7 151.7 135.3 140 138.2C128.3 141 116.7 150 105 150C93.3 150 81.7 141 70 138.2C58.3 135.3 46.7 138.7 35 141.2C23.3 143.7 11.7 145.3 5.8 146.2L0 147Z" fill="#033547"></path><path d="M0 171L5.8 169.3C11.7 167.7 23.3 164.3 35 162.7C46.7 161 58.3 161 70 165.7C81.7 170.3 93.3 179.7 105 178.8C116.7 178 128.3 167 140 164.8C151.7 162.7 163.3 169.3 175 174.3C186.7 179.3 198.3 182.7 210 183.2C221.7 183.7 233.3 181.3 245 178.8C256.7 176.3 268.3 173.7 280 173.7C291.7 173.7 303.3 176.3 315 175.2C326.7 174 338.3 169 350 165.7C361.7 162.3 373.3 160.7 385 163.5C396.7 166.3 408.3 173.7 420 170.7C431.7 167.7 443.3 154.3 455 155.7C466.7 157 478.3 173 490 180.2C501.7 187.3 513.3 185.7 525 183.5C536.7 181.3 548.3 178.7 560 177C571.7 175.3 583.3 174.7 595 173.8C606.7 173 618.3 172 630 172.8C641.7 173.7 653.3 176.3 665 174.7C676.7 173 688.3 167 694.2 164L700 161L700 147L694.2 150.7C688.3 154.3 676.7 161.7 665 163.3C653.3 165 641.7 161 630 160.7C618.3 160.3 606.7 163.7 595 164.8C583.3 166 571.7 165 560 165.8C548.3 166.7 536.7 169.3 525 172.3C513.3 175.3 501.7 178.7 490 171.2C478.3 163.7 466.7 145.3 455 142.3C443.3 139.3 431.7 151.7 420 155.3C408.3 159 396.7 154 385 152.8C373.3 151.7 361.7 154.3 350 158.2C338.3 162 326.7 167 315 168.2C303.3 169.3 291.7 166.7 280 166.2C268.3 165.7 256.7 167.3 245 168.2C233.3 169 221.7 169 210 168.2C198.3 167.3 186.7 165.7 175 162.3C163.3 159 151.7 154 140 156.5C128.3 159 116.7 169 105 168.2C93.3 167.3 81.7 155.7 70 151.2C58.3 146.7 46.7 149.3 35 152.7C23.3 156 11.7 160 5.8 162L0 164Z" fill="#043243"></path><path d="M0 209L5.8 212.7C11.7 216.3 23.3 223.7 35 226.2C46.7 228.7 58.3 226.3 70 225.5C81.7 224.7 93.3 225.3 105 224.5C116.7 223.7 128.3 221.3 140 219.7C151.7 218 163.3 217 175 216.5C186.7 216 198.3 216 210 216.5C221.7 217 233.3 218 245 216C256.7 214 268.3 209 280 207.7C291.7 206.3 303.3 208.7 315 209.8C326.7 211 338.3 211 350 212.7C361.7 214.3 373.3 217.7 385 218.2C396.7 218.7 408.3 216.3 420 216C431.7 215.7 443.3 217.3 455 218.2C466.7 219 478.3 219 490 218.5C501.7 218 513.3 217 525 217.3C536.7 217.7 548.3 219.3 560 216C571.7 212.7 583.3 204.3 595 204C606.7 203.7 618.3 211.3 630 213.8C641.7 216.3 653.3 213.7 665 212.8C676.7 212 688.3 213 694.2 213.5L700 214L700 159L694.2 162C688.3 165 676.7 171 665 172.7C653.3 174.3 641.7 171.7 630 170.8C618.3 170 606.7 171 595 171.8C583.3 172.7 571.7 173.3 560 175C548.3 176.7 536.7 179.3 525 181.5C513.3 183.7 501.7 185.3 490 178.2C478.3 171 466.7 155 455 153.7C443.3 152.3 431.7 165.7 420 168.7C408.3 171.7 396.7 164.3 385 161.5C373.3 158.7 361.7 160.3 350 163.7C338.3 167 326.7 172 315 173.2C303.3 174.3 291.7 171.7 280 171.7C268.3 171.7 256.7 174.3 245 176.8C233.3 179.3 221.7 181.7 210 181.2C198.3 180.7 186.7 177.3 175 172.3C163.3 167.3 151.7 160.7 140 162.8C128.3 165 116.7 176 105 176.8C93.3 177.7 81.7 168.3 70 163.7C58.3 159 46.7 159 35 160.7C23.3 162.3 11.7 165.7 5.8 167.3L0 169Z" fill="#053040"></path><path d="M0 224L5.8 226C11.7 228 23.3 232 35 232.8C46.7 233.7 58.3 231.3 70 231.3C81.7 231.3 93.3 233.7 105 233.2C116.7 232.7 128.3 229.3 140 227.3C151.7 225.3 163.3 224.7 175 224.7C186.7 224.7 198.3 225.3 210 225.7C221.7 226 233.3 226 245 223.5C256.7 221 268.3 216 280 215.7C291.7 215.3 303.3 219.7 315 220.5C326.7 221.3 338.3 218.7 350 220.3C361.7 222 373.3 228 385 229.3C396.7 230.7 408.3 227.3 420 226.5C431.7 225.7 443.3 227.3 455 228.5C466.7 229.7 478.3 230.3 490 229C501.7 227.7 513.3 224.3 525 225.2C536.7 226 548.3 231 560 229.3C571.7 227.7 583.3 219.3 595 218.5C606.7 217.7 618.3 224.3 630 225.7C641.7 227 653.3 223 665 221C676.7 219 688.3 219 694.2 219L700 219L700 212L694.2 211.5C688.3 211 676.7 210 665 210.8C653.3 211.7 641.7 214.3 630 211.8C618.3 209.3 606.7 201.7 595 202C583.3 202.3 571.7 210.7 560 214C548.3 217.3 536.7 215.7 525 215.3C513.3 215 501.7 216 490 216.5C478.3 217 466.7 217 455 216.2C443.3 215.3 431.7 213.7 420 214C408.3 214.3 396.7 216.7 385 216.2C373.3 215.7 361.7 212.3 350 210.7C338.3 209 326.7 209 315 207.8C303.3 206.7 291.7 204.3 280 205.7C268.3 207 256.7 212 245 214C233.3 216 221.7 215 210 214.5C198.3 214 186.7 214 175 214.5C163.3 215 151.7 216 140 217.7C128.3 219.3 116.7 221.7 105 222.5C93.3 223.3 81.7 222.7 70 223.5C58.3 224.3 46.7 226.7 35 224.2C23.3 221.7 11.7 214.3 5.8 210.7L0 207Z" fill="#062e3c"></path><path d="M0 244L5.8 244.3C11.7 244.7 23.3 245.3 35 244.8C46.7 244.3 58.3 242.7 70 242.3C81.7 242 93.3 243 105 243C116.7 243 128.3 242 140 242.3C151.7 242.7 163.3 244.3 175 244C186.7 243.7 198.3 241.3 210 240.5C221.7 239.7 233.3 240.3 245 239.8C256.7 239.3 268.3 237.7 280 237.3C291.7 237 303.3 238 315 237.7C326.7 237.3 338.3 235.7 350 236.8C361.7 238 373.3 242 385 243.2C396.7 244.3 408.3 242.7 420 242.3C431.7 242 443.3 243 455 243C466.7 243 478.3 242 490 240.3C501.7 238.7 513.3 236.3 525 236.8C536.7 237.3 548.3 240.7 560 240.7C571.7 240.7 583.3 237.3 595 236.8C606.7 236.3 618.3 238.7 630 239.5C641.7 240.3 653.3 239.7 665 238.5C676.7 237.3 688.3 235.7 694.2 234.8L700 234L700 217L694.2 217C688.3 217 676.7 217 665 219C653.3 221 641.7 225 630 223.7C618.3 222.3 606.7 215.7 595 216.5C583.3 217.3 571.7 225.7 560 227.3C548.3 229 536.7 224 525 223.2C513.3 222.3 501.7 225.7 490 227C478.3 228.3 466.7 227.7 455 226.5C443.3 225.3 431.7 223.7 420 224.5C408.3 225.3 396.7 228.7 385 227.3C373.3 226 361.7 220 350 218.3C338.3 216.7 326.7 219.3 315 218.5C303.3 217.7 291.7 213.3 280 213.7C268.3 214 256.7 219 245 221.5C233.3 224 221.7 224 210 223.7C198.3 223.3 186.7 222.7 175 222.7C163.3 222.7 151.7 223.3 140 225.3C128.3 227.3 116.7 230.7 105 231.2C93.3 231.7 81.7 229.3 70 229.3C58.3 229.3 46.7 231.7 35 230.8C23.3 230 11.7 226 5.8 224L0 222Z" fill="#062b39"></path><path d="M0 251L5.8 251C11.7 251 23.3 251 35 251C46.7 251 58.3 251 70 251C81.7 251 93.3 251 105 251C116.7 251 128.3 251 140 251C151.7 251 163.3 251 175 251C186.7 251 198.3 251 210 251C221.7 251 233.3 251 245 251C256.7 251 268.3 251 280 251C291.7 251 303.3 251 315 251C326.7 251 338.3 251 350 251C361.7 251 373.3 251 385 251C396.7 251 408.3 251 420 251C431.7 251 443.3 251 455 251C466.7 251 478.3 251 490 251C501.7 251 513.3 251 525 251C536.7 251 548.3 251 560 251C571.7 251 583.3 251 595 251C606.7 251 618.3 251 630 251C641.7 251 653.3 251 665 251C676.7 251 688.3 251 694.2 251L700 251L700 232L694.2 232.8C688.3 233.7 676.7 235.3 665 236.5C653.3 237.7 641.7 238.3 630 237.5C618.3 236.7 606.7 234.3 595 234.8C583.3 235.3 571.7 238.7 560 238.7C548.3 238.7 536.7 235.3 525 234.8C513.3 234.3 501.7 236.7 490 238.3C478.3 240 466.7 241 455 241C443.3 241 431.7 240 420 240.3C408.3 240.7 396.7 242.3 385 241.2C373.3 240 361.7 236 350 234.8C338.3 233.7 326.7 235.3 315 235.7C303.3 236 291.7 235 280 235.3C268.3 235.7 256.7 237.3 245 237.8C233.3 238.3 221.7 237.7 210 238.5C198.3 239.3 186.7 241.7 175 242C163.3 242.3 151.7 240.7 140 240.3C128.3 240 116.7 241 105 241C93.3 241 81.7 240 70 240.3C58.3 240.7 46.7 242.3 35 242.8C23.3 243.3 11.7 242.7 5.8 242.3L0 242Z" fill="#072935"></path></svg>