<svg id="visual" viewBox="0 0 900 450" width="900" height="450" xmlns="http://www.w3.org/2000/svg" xmlns:xlink="http://www.w3.org/1999/xlink" version="1.1"><rect x="0" y="0" width="900" height="450" fill="#033649"></rect><defs><linearGradient id="grad1_0" x1="50%" y1="100%" x2="100%" y2="0%"><stop offset="10%" stop-color="#037c9b" stop-opacity="1"></stop><stop offset="90%" stop-color="#037c9b" stop-opacity="1"></stop></linearGradient></defs><defs><linearGradient id="grad1_1" x1="50%" y1="100%" x2="100%" y2="0%"><stop offset="10%" stop-color="#037c9b" stop-opacity="1"></stop><stop offset="90%" stop-color="#055871" stop-opacity="1"></stop></linearGradient></defs><defs><linearGradient id="grad1_2" x1="50%" y1="100%" x2="100%" y2="0%"><stop offset="10%" stop-color="#033649" stop-opacity="1"></stop><stop offset="90%" stop-color="#055871" stop-opacity="1"></stop></linearGradient></defs><defs><linearGradient id="grad2_0" x1="0%" y1="100%" x2="50%" y2="0%"><stop offset="10%" stop-color="#037c9b" stop-opacity="1"></stop><stop offset="90%" stop-color="#037c9b" stop-opacity="1"></stop></linearGradient></defs><defs><linearGradient id="grad2_1" x1="0%" y1="100%" x2="50%" y2="0%"><stop offset="10%" stop-color="#055871" stop-opacity="1"></stop><stop offset="90%" stop-color="#037c9b" stop-opacity="1"></stop></linearGradient></defs><defs><linearGradient id="grad2_2" x1="0%" y1="100%" x2="50%" y2="0%"><stop offset="10%" stop-color="#055871" stop-opacity="1"></stop><stop offset="90%" stop-color="#033649" stop-opacity="1"></stop></linearGradient></defs><g transform="translate(900, 450)"><path d="M-292.5 0C-285.4 -24.8 -278.3 -49.6 -267.6 -71.7C-256.9 -93.8 -242.6 -113.1 -230.4 -133C-218.1 -152.9 -207.9 -173.3 -195.2 -195.2C-182.4 -217 -167.2 -240.2 -146.3 -253.3C-125.3 -266.4 -98.8 -269.5 -73.5 -274.3C-48.2 -279.2 -24.1 -285.8 0 -292.5L0 0Z" fill="#04465d"></path><path d="M-195 0C-190.3 -16.5 -185.5 -33.1 -178.4 -47.8C-171.2 -62.5 -161.7 -75.4 -153.6 -88.7C-145.4 -101.9 -138.6 -115.6 -130.1 -130.1C-121.6 -144.7 -111.4 -160.1 -97.5 -168.9C-83.6 -177.6 -65.9 -179.6 -49 -182.9C-32.1 -186.1 -16.1 -190.6 0 -195L0 0Z" fill="#056a86"></path><path d="M-97.5 0C-95.1 -8.3 -92.8 -16.5 -89.2 -23.9C-85.6 -31.3 -80.9 -37.7 -76.8 -44.3C-72.7 -51 -69.3 -57.8 -65.1 -65.1C-60.8 -72.3 -55.7 -80.1 -48.8 -84.4C-41.8 -88.8 -32.9 -89.8 -24.5 -91.4C-16.1 -93.1 -8 -95.3 0 -97.5L0 0Z" fill="#037c9b"></path></g><g transform="translate(0, 0)"><path d="M292.5 0C279.2 22.4 265.9 44.7 261.8 70.1C257.6 95.6 262.5 124 253.3 146.2C244.1 168.5 220.9 184.5 200.1 200.1C179.3 215.7 161.1 230.9 140.5 243.4C119.9 255.8 97 265.6 73.2 273.4C49.4 281.1 24.7 286.8 0 292.5L0 0Z" fill="#04465d"></path><path d="M195 0C186.1 14.9 177.3 29.8 174.5 46.8C171.7 63.7 175 82.7 168.9 97.5C162.8 112.3 147.3 123 133.4 133.4C119.6 143.8 107.4 153.9 93.7 162.2C80 170.6 64.7 177.1 48.8 182.2C33 187.4 16.5 191.2 0 195L0 0Z" fill="#056a86"></path><path d="M97.5 0C93.1 7.5 88.6 14.9 87.3 23.4C85.9 31.9 87.5 41.3 84.4 48.7C81.4 56.2 73.6 61.5 66.7 66.7C59.8 71.9 53.7 77 46.8 81.1C40 85.3 32.3 88.5 24.4 91.1C16.5 93.7 8.2 95.6 0 97.5L0 0Z" fill="#037c9b"></path></g></svg>